<svg width="108" height="30" viewBox="0 0 108 30" fill="none" xmlns="http://www.w3.org/2000/svg">
<path fill-rule="evenodd" clip-rule="evenodd" d="M106.537 29.323C105.005 29.565 103.137 30 97.44 30C91.216 30 86.38 28.307 86.38 20.087L86.383 9.913C86.383 1.693 91.219 0 97.443 0C103.14 0 105.008 0.435 106.54 0.677C107.258 0.774 107.497 1.015 107.497 1.692V4.787C107.498 5.0419 107.397 5.28666 107.218 5.46784C107.039 5.64901 106.795 5.75189 106.54 5.754H96.773C93.996 5.754 92.99 6.721 92.99 9.913V11.846H105.965C106.491 11.846 106.922 12.281 106.922 12.813V16.295C106.923 16.5499 106.822 16.7947 106.643 16.9758C106.464 17.157 106.22 17.2599 105.965 17.262H92.99L92.988 20.087C92.988 23.278 93.993 24.246 96.77 24.246H106.537C107.064 24.246 107.494 24.681 107.494 25.213V28.307C107.494 28.984 107.256 29.226 106.537 29.323V29.323ZM49.734 1.929L44.735 29.059C44.633 29.554 44.223 29.999 43.711 29.999H43.198C42.738 29.999 42.481 29.653 42.481 29.257V29.059L47.479 1.929C47.582 1.434 47.992 0.989 48.504 0.989H49.017C49.478 0.989 49.734 1.335 49.734 1.731V1.929V1.929ZM38.337 1.82L34.374 26.036C33.938 29.12 32.531 30 30.01 30H27.39C25.208 30 24.044 28.923 23.365 26.085L19.533 13.912C19.436 13.472 19.436 13.374 19.243 13.374C19.048 13.374 19 13.472 18.903 13.912L15.071 26.085C14.392 28.923 13.229 30 11.046 30H8.427C5.904 30 4.497 29.119 4.061 26.036L0 1.82V1.674C0 1.233 0.388 0.988 0.825 0.988H5.965C6.353 0.988 6.742 1.331 6.79 1.869L9.785 23.345C9.833 23.785 9.833 24.079 10.027 24.079C10.221 24.079 10.221 23.785 10.318 23.345L14.488 10.145C14.78 8.97 15.459 7.943 17.545 7.943H20.892C22.977 7.943 23.656 8.97 23.947 10.144L28.117 23.345C28.215 23.785 28.215 24.079 28.409 24.079C28.603 24.079 28.603 23.785 28.652 23.345L31.546 1.869C31.596 1.331 31.983 0.989 32.37 0.989H37.512C37.949 0.989 38.337 1.233 38.337 1.674V1.82V1.82ZM79.119 0.988C79.592 0.988 79.781 1.336 79.781 1.731V1.93L75.495 27.525C75.214 29.097 74.187 29.985 73.017 30V29.998L72.99 30H72.981C71.805 29.998 71.192 29.65 70.815 28.415L63.097 3.415C63.0743 3.32735 63.026 3.24844 62.9584 3.18826C62.8907 3.12808 62.8067 3.08936 62.717 3.077V3.069C62.702 3.068 62.687 3.061 62.671 3.061C62.658 3.061 62.642 3.068 62.627 3.072V3.062C62.537 3.088 62.428 3.186 62.387 3.398L58.03 29.058C57.936 29.554 57.558 29.999 57.085 29.999H56.612C56.187 29.999 55.951 29.653 55.951 29.257V29.059L60.308 3.398C60.608 1.734 61.688 1.093 62.627 0.988V0.998L62.717 0.988V0.996C62.7805 0.990889 62.8443 0.988221 62.908 0.988C64.136 0.988 64.751 1.682 65.035 2.524L72.753 27.573C72.795 27.747 72.843 27.874 72.981 27.905C72.994 27.907 73.003 27.915 73.017 27.915C73.024 27.917 73.029 27.921 73.037 27.921C73.084 27.921 73.32 27.723 73.368 27.525L77.654 1.93C77.748 1.434 78.08 0.988 78.552 0.988H79.119V0.988Z" fill="#1D1D1B"/>
</svg>
